# Rhino

mtllib skeleton1.mtl
usemtl diffuse_Black
v 17.908938475452999 -284.98289309553365 0
v 86.828427235361175 -273.76344143694394 0
v 191.56137951594962 -310.09791838519681 0
v 119.64899343076398 -229.8416293985008 0
v 136.74920934082294 -301.29610302267577 0
v 128.85213336961613 -382.42627200837842 0
v 80.144474697904769 -287.39685819326621 0
v 75.575584956788745 -263.56938362721417 0
v 101.72276993157277 -270.81321608583124 0
v 125.61399275788312 -311.61851677264536 0
v 140.58564272716674 -286.60504952584694 0
v 143.77198181090853 -314.75812147489711 0
v 14.013603727150105 -261.05440821310162 0
v 21.804273223755892 -308.91137797796569 0
v 187.71757192783301 -334.03473448081928 0
v 195.40518710406624 -286.16110228957433 0
v 139.06937891848597 -244.35350898311668 0
v 100.22860794304199 -215.32974981388492 0
v 104.72270028854982 -380.07755304765601 0
v 152.98156645068244 -384.77499096910083 0
vn 0 0 1
vn 0 0 1
vn 0 0 1
vn 0 0 1
vn 0 0 1
vn 0 0 1
vn 0 0 1
vn 0 0 1
vn 0 0 1
vn 0 0 1
vn 0 0 1
vn 0 0 1
vn 0 0 1
vn 0 0 1
vn 0 0 1
vn 0 0 1
vn 0 0 1
vn 0 0 1
vn 0 0 1
vn 0 0 1
f 1//1 2//2 8//8 13//13
f 2//2 1//1 14//14 7//7
f 2//2 4//4 18//18 8//8
f 2//2 5//5 11//11 9//9
f 3//3 5//5 12//12 15//15
f 4//4 2//2 9//9 17//17
f 5//5 2//2 7//7 10//10
f 5//5 3//3 16//16 11//11
f 5//5 6//6 20//20 12//12
f 6//6 5//5 10//10 19//19
